<?xml version="1.0" standalone="no"?> <!DOCTYPE svg PUBLIC "-//W3C//DTD SVG 1.0//EN" "http://www.w3.org/TR/2001/REC-SVG-20010904/DTD/svg10.dtd" > <svg xmlns="http://www.w3.org/2000/svg" width="100%" height="100%">
<defs >
<font id="aller_bd" horiz-adv-x="564" ><font-face
    font-family="Aller"
    units-per-em="1000"
    panose-1="2 0 8 3 4 0 0 2 0 4"
    ascent="936"
    descent="-249"
    alphabetic="0" />
<missing-glyph horiz-adv-x="500" />
<glyph unicode=" " glyph-name="space" horiz-adv-x="220" />
<glyph unicode="!" glyph-name="exclam" horiz-adv-x="299" d="M72 719Q111 725 149 725Q188 725 227 719L217 230Q182 224 150 224Q116 224 82 230L72 719ZM76 0Q70 37 70 73Q70 109 76 147Q113 153 149 153Q185 153 223 147Q229 109 229 74Q229 37 223 0Q185
-6 150 -6Q113 -6 76 0Z" />
<glyph unicode="&quot;" glyph-name="quotedbl" horiz-adv-x="429" d="M50 720Q67 723 82 724T114 725Q131 725 146 724T179 720V439Q162 436 147 435T115 434Q98 434 83 435T50 439V720ZM250 720Q267 723 282 724T314 725Q331 725 346 724T379 720V439Q362 436
347 435T315 434Q298 434 283 435T250 439V720Z" />
<glyph unicode="#" glyph-name="numbersign" horiz-adv-x="734" d="M170 205H57Q53 228 53 257Q53 271 54 284T58 311H179L189 432H77Q75 446 74 459T72 486Q72 500 73 512T77 539H198L211 690Q227 693 241 694T273 695Q288 695 302 694T332 690L319 539H441L454
690Q471 693 485 694T516 695Q531 695 545 694T576 690L563 539H668Q670 525 671 514T673 488Q673 474 672 460T668 432H555L545 311H649Q651 297 652 285T654 259Q654 245 653 232T649 205H536L522 30Q505 27 491 26T460 25Q444 25 430 26T400 30L414 205H293L279
30Q262 27 248 26T216 25Q201 25 187 26T156 30L170 205ZM423 311L433 432H311L301 311H423Z" />
<glyph unicode="$" glyph-name="dollar" horiz-adv-x="600" d="M262 -12H254Q221 -12 195 -10T146 -4T99 8T51 25Q54 54 62 83T81 145Q123 128 160 122T239 115Q302 115 336 136T371 206Q371 230 362 245T338 271T305 288T270 303L217 326Q184 340 157 355T111
392T81 443T70 514Q70 604 121 656T262 719V825Q283 831 305 831Q326 831 349 825V722Q389 719 426 711T504 688Q498 630 472 574Q457 580 442 586T409 596T369 602T319 605Q302 605 285 603T253 592T230 570T221 532Q221 512 228 498T247 475T274 458T304 445L364
420Q402 404 433 388T485 350T519 295T531 213Q531 131 485 75T349 -2V-118Q328 -124 306 -124Q284 -124 262 -118V-12Z" />
<glyph unicode="%" glyph-name="percent" horiz-adv-x="1050" d="M702 709Q736 715 772 715Q803 715 841 709L357 2Q322 -4 290 -4Q256 -4 219 2L702 709ZM243 389Q279 389 296 421T313 506Q313 560 296 591T243 623Q207 623 190 592T173 506Q173 453 190 421T243
389ZM243 294Q193 294 157 312T97 359T62 427T50 506Q50 547 61 585T96 653T156 701T243 719Q292 719 328 701T389 654T424 586T436 506Q436 465 425 427T389 360T329 312T243 294ZM816 83Q852 83 869 115T886 200Q886 254 869 285T816 317Q780 317 763 286T746
200Q746 147 763 115T816 83ZM816 -12Q766 -12 730 6T670 53T635 121T623 200Q623 241 634 279T669 347T729 395T816 413Q865 413 901 395T962 348T997 280T1009 200Q1009 159 998 121T962 54T902 6T816 -12Z" />
<glyph unicode="&amp;" glyph-name="ampersand" horiz-adv-x="763" d="M491 466L609 607H631V466H733Q736 451 737 439T738 414Q738 400 737 387T733 358H631V236Q631 174 610 128T548 51T450 4T322 -12Q270 -12 221 -1T134 37T72 104T49 204Q49 240 59 272T87
330T125 374T169 402Q132 422 105 458T78 550Q78 595 95 629T143 685T214 719T302 731Q331 731 367 727T443 708Q443 651 412 603Q379 615 353 617T309 620Q261 620 240 598T219 544Q219 527 224 513T241 488T272 472T321 466H491ZM493 358H325Q271 358 239 324T206
234Q206 178 236 144T338 110Q386 110 415 124T462 161T485 213T493 273V358Z" />
<glyph unicode="&apos;" glyph-name="quotesingle" horiz-adv-x="229" d="M50 720Q67 723 82 724T114 725Q131 725 146 724T179 720V439Q162 436 147 435T115 434Q98 434 83 435T50 439V720Z" />
<glyph unicode="(" glyph-name="parenleft" horiz-adv-x="357" d="M166 -167Q143 -130 122 -83T85 22T60 150T50 305Q50 389 59 459T85 588T122 692T166 776Q175 779 193 780T233 782Q253 782 273 781T307 776Q295 756 276 717T239 618T208 481T194 305Q194 207
207 129T239 -9T276 -107T307 -167Q293 -170 273 -171T233 -173Q212 -173 194 -172T166 -167Z" />
<glyph unicode=")" glyph-name="parenright" horiz-adv-x="357" d="M50 -167Q62 -147 81 -108T118 -9T149 128T163 305Q163 403 150 481T118 618T81 716T50 776Q64 779 84 780T124 782Q145 782 163 781T191 776Q214 739 235 693T272 588T297 460T307 305Q307 221
298 151T272 22T235 -83T191 -167Q182 -170 164 -171T124 -173Q104 -173 84 -172T50 -167Z" />
<glyph unicode="*" glyph-name="asterisk" horiz-adv-x="484" d="M214 719Q232 722 250 722Q270 722 290 719L302 582Q288 580 276 579T250 578Q222 578 203 582L214 719ZM36 532Q38 551 45 569T60 604L194 573Q185 520 163 479L36 532ZM260 406Q299 443 340 464L412
347Q398 333 383 322T350 302L260 406ZM445 605Q454 588 459 569T468 533L341 479Q329 503 322 527T311 573L445 605ZM166 463Q207 442 246 405L156 301Q139 309 124 320T94 346L166 463Z" />
<glyph unicode="+" glyph-name="plus" horiz-adv-x="600" d="M239 293H82Q76 323 76 353Q76 384 82 414H239V591Q269 597 299 597Q330 597 360 591V414H517Q523 384 523 354Q523 323 517 293H360V116Q330 110 300 110Q269 110 239 116V293Z" />
<glyph unicode="," glyph-name="comma" horiz-adv-x="291" d="M100 144Q117 148 134 149T167 151Q183 151 202 150T238 144L165 -112Q148 -116 131 -117T98 -118Q82 -118 67 -117T34 -112L100 144Z" />
<glyph unicode="-" glyph-name="hyphen" horiz-adv-x="371" d="M313 336Q319 306 319 275Q319 243 313 213H58Q52 243 52 274Q52 306 58 336H313Z" />
<glyph unicode="." glyph-name="period" horiz-adv-x="289" d="M71 0Q65 37 65 73Q65 109 71 147Q108 153 144 153Q180 153 218 147Q224 109 224 74Q224 37 218 0Q180 -6 145 -6Q108 -6 71 0Z" />
<glyph unicode="/" glyph-name="slash" horiz-adv-x="409" d="M255 719Q292 725 327 725Q361 725 397 719L153 0Q117 -6 82 -6Q48 -6 12 0L255 719Z" />
<glyph unicode="0" glyph-name="zero" horiz-adv-x="600" d="M301 -12Q234 -12 185 13T105 83T58 189T42 324Q42 397 58 459T106 566T187 636T305 662Q372 662 421 637T502 566T549 459T564 324Q564 251 548 190T500 83T418 13T301 -12ZM303 108Q354 108 382 160T411
324Q411 435 383 487T303 540Q251 540 222 488T192 324Q192 213 222 161T303 108Z" />
<glyph unicode="1" glyph-name="one" horiz-adv-x="600" d="M260 120V470L137 421Q118 446 105 472Q92 499 84 528L371 654H398V120H541Q544 103 545 89T546 61Q546 45 545 31T541 0H115Q112 17 111 31T110 61Q110 75 111 89T115 120H260Z" />
<glyph unicode="2" glyph-name="two" horiz-adv-x="600" d="M56 15L202 206Q236 251 263 285T308 347T336 400T346 450Q346 492 317 515T234 538Q212 538 196 536T164 530T135 521T104 508Q91 536 82 565T70 624Q94 633 114 640T156 652T199 659T251 662Q304 662
349 651T426 615T477 555T495 469Q495 433 485 400T457 335T415 268T360 193L307 122H520Q526 92 526 63Q526 30 520 0H63L56 15Z" />
<glyph unicode="3" glyph-name="three" horiz-adv-x="600" d="M168 288L302 530H82Q76 560 76 590Q76 622 82 652H500L510 635L349 368H353Q392 368 423 353T476 314T509 257T521 192Q521 128 499 80T438 -1T346 -50T231 -67Q201 -67 178 -66T133 -60T89 -50T40
-34Q42 -3 51 28T75 83Q113 71 146 63T224 55Q256 55 284 62T334 85T367 125T380 183Q380 208 369 226T340 257T298 274T248 280Q231 280 213 279T178 273L168 288Z" />
<glyph unicode="4" glyph-name="four" horiz-adv-x="600" d="M16 95L299 667Q333 663 364 653T424 620L218 202H361V362Q378 364 394 365T427 367Q445 367 463 366T499 362V202H571Q577 173 577 142Q577 127 576 111T571 81H499V-59Q482 -61 466 -62T433 -64Q415
-64 397 -63T361 -59V81H25L16 95Z" />
<glyph unicode="5" glyph-name="five" horiz-adv-x="600" d="M125 652H483Q489 622 489 592Q489 560 483 530H253L247 387Q265 391 279 392T308 394Q357 394 397 381T465 341T510 275T526 185Q526 123 505 76T444 -3T348 -51T221 -67Q208 -67 189 -66T147 -61T99
-51T51 -37Q54 -6 64 24T86 83Q121 71 152 64T218 57Q263 57 293 67T342 93T369 131T377 176Q377 227 344 255T237 283Q208 283 181 278T125 258L110 270L125 652Z" />
<glyph unicode="6" glyph-name="six" horiz-adv-x="600" d="M453 725Q458 709 461 693T465 660Q465 635 456 607Q400 605 357 587T284 540T234 472T207 392Q216 405 228 417T258 440T299 457T352 464Q395 464 434 450T502 407T549 334T567 232Q567 172 546 127T489
50T408 4T314 -12Q189 -12 123 61T57 280Q57 371 81 450T154 589T277 684T453 725ZM311 104Q357 104 388 135T419 229Q419 295 390 323T315 352Q265 352 236 323T206 234Q206 171 234 138T311 104Z" />
<glyph unicode="7" glyph-name="seven" horiz-adv-x="600" d="M370 530H69Q63 560 63 590Q63 622 69 652H561L567 640L273 -74Q237 -66 205 -53T141 -17L370 530Z" />
<glyph unicode="8" glyph-name="eight" horiz-adv-x="600" d="M169 381Q130 404 105 444T79 535Q79 577 96 611T142 669T212 706T300 719Q347 719 387 706T457 669T504 611T521 535Q521 484 495 445T430 381Q452 370 474 354T514 314T542 260T553 190Q553 136
532 98T475 35T394 -1T300 -12Q252 -12 207 -1T126 34T69 97T47 190Q47 228 57 258T85 312T124 353T169 381ZM299 326Q251 310 221 280T191 202Q191 155 219 129T300 103Q354 103 381 129T409 202Q409 250 378 280T299 326ZM300 425Q340 439 364 463T389 530Q389
565 367 586T300 608Q256 608 234 587T212 530Q212 488 236 464T300 425Z" />
<glyph unicode="9" glyph-name="nine" horiz-adv-x="600" d="M160 -75Q155 -59 152 -43T148 -10Q148 14 157 43Q212 45 255 63T329 110T379 178T406 258Q397 245 385 233T355 210T314 193T261 186Q218 186 179 200T111 243T64 315T46 418Q46 478 67 523T124 600T205
646T299 662Q424 662 490 589T556 370Q556 279 532 200T459 61T336 -35T160 -75ZM298 298Q348 298 377 327T407 416Q407 479 379 512T302 546Q256 546 225 515T194 421Q194 355 223 327T298 298Z" />
<glyph unicode=":" glyph-name="colon" horiz-adv-x="289" d="M71 0Q65 37 65 73Q65 109 71 147Q108 153 144 153Q180 153 218 147Q224 109 224 74Q224 37 218 0Q180 -6 145 -6Q108 -6 71 0ZM71 370Q65 407 65 443Q65 479 71 517Q108 523 144 523Q180 523 218
517Q224 479 224 444Q224 407 218 370Q180 364 145 364Q108 364 71 370Z" />
<glyph unicode=";" glyph-name="semicolon" horiz-adv-x="310" d="M350 144Q367 148 384 149T417 151Q433 151 452 150T488 144L415 -112Q398 -116 381 -117T348 -118Q332 -118 317 -117T284 -112L350 144ZM92 370Q86 407 86 443Q86 479 92 517Q129 523 165 523Q201
523 239 517Q245 479 245 444Q245 407 239 370Q201 364 166 364Q129 364 92 370Z" />
<glyph unicode="&lt;" glyph-name="less" horiz-adv-x="600" d="M509 577Q515 538 515 514Q515 497 514 480T510 448L208 339L510 236Q513 221 514 205T515 171Q515 157 514 139T509 101L95 265Q86 305 86 343Q86 378 95 414L509 577Z" />
<glyph unicode="=" glyph-name="equal" horiz-adv-x="600" d="M511 562Q517 532 517 502Q517 471 511 441H90Q84 471 84 501Q84 532 90 562H511ZM511 511Q517 481 517 451Q517 420 511 390H90Q84 420 84 450Q84 481 90 511H511Z" />
<glyph unicode="&gt;" glyph-name="greater" horiz-adv-x="600" d="M392 339L90 442Q87 457 86 473T85 507Q85 521 86 539T91 577L505 413Q514 372 514 335Q514 300 505 264L91 101Q85 140 85 164Q85 181 86 198T90 230L392 339Z" />
<glyph unicode="?" glyph-name="question" horiz-adv-x="493" d="M175 398Q198 402 223 409T269 430T303 462T317 511Q317 554 286 576T204 599Q183 599 167 598T136 593T108 585T77 574Q63 600 54 628T43 686Q69 695 91 701T134 712T176 717T221 719Q341 719
402 665T463 515Q463 468 445 434T402 377T349 339T305 317V226Q270 220 238 220Q205 220 175 226V398ZM165 0Q159 37 159 73Q159 109 165 147Q202 153 238 153Q274 153 312 147Q318 109 318 74Q318 37 312 0Q274 -6 239 -6Q202 -6 165 0Z" />
<glyph unicode="@" glyph-name="at" horiz-adv-x="1005" d="M657 159Q667 151 690 151Q727 151 756 173T804 230T834 307T844 391Q844 506 774 567T577 628Q479 628 403 595T274 505T194 375T166 222Q166 150 187 99T246 16T332 -32T438 -47Q490 -47 534 -41T614
-20Q623 -42 631 -65T645 -112Q627 -121 602 -128T548 -140T487 -147T422 -150Q345 -150 276 -128T155 -61T73 54T43 218Q43 307 75 398T175 562T345 682T591 729Q667 729 734 709T852 646T932 541T962 391Q962 329 942 269T884 160T795 82T678 51Q605 51 567 89Q537
74 504 63T421 51Q389 51 361 60T312 90T279 142T266 216Q266 284 288 340T350 438T440 502T551 525Q596 525 639 519T721 498L657 159ZM579 413Q568 416 559 417T538 418Q505 418 480 403T436 364T409 307T399 239Q399 194 418 174T470 154Q490 154 504 157T536
165L579 413Z" />
<glyph unicode="A" glyph-name="A" horiz-adv-x="636" d="M237 719Q258 722 277 723T319 725Q339 725 358 724T400 719L625 0Q584 -6 545 -6Q507 -6 471 0L431 144H193L152 0Q116 -6 83 -6Q46 -6 10 0L237 719ZM397 265L314 567L227 265H397Z" />
<glyph unicode="B" glyph-name="B" horiz-adv-x="605" d="M72 720Q104 725 146 728T251 731Q306 731 355 722T440 692T498 634T519 544Q519 512 510 485T484 437T448 403T407 386Q430 383 458 372T510 340T550 284T566 202Q566 137 542 96T476 30T380 -3T265 -12Q219
-12 174 -10T72 0V720ZM217 110Q231 108 249 107T283 106Q304 106 327 110T370 125T403 157T416 211Q416 242 406 262T378 295T334 313T277 318H217V110ZM261 428Q286 428 307 432T345 448T370 479T379 529Q379 558 369 576T342 605T305 619T264 623Q236 623 217
620V428H261Z" />
<glyph unicode="C" glyph-name="C" horiz-adv-x="618" d="M545 136Q558 108 566 79T579 19Q527 0 486 -6T396 -12Q311 -12 247 15T140 92T74 210T52 358Q52 438 75 506T141 625T248 703T393 731Q441 731 481 725T569 700Q567 670 557 642T535 584Q500 596 473
601T409 606Q313 606 262 544T210 358Q210 114 417 114Q454 114 482 119T545 136Z" />
<glyph unicode="D" glyph-name="D" horiz-adv-x="700" d="M73 719Q115 724 161 727T263 731Q452 731 550 637T649 355Q649 166 549 77T252 -12Q201 -12 158 -9T73 0V719ZM220 116Q229 115 243 114T277 113Q323 113 362 123T431 162T477 237T494 358Q494 430 477
478T431 554T365 593T285 605Q271 605 253 605T220 602V116Z" />
<glyph unicode="E" glyph-name="E" horiz-adv-x="531" d="M70 719H478Q484 689 484 658Q484 625 478 595H216V439H424Q430 407 430 377Q430 345 424 314H216V124H485Q491 94 491 63Q491 30 485 0H70V719Z" />
<glyph unicode="F" glyph-name="F" horiz-adv-x="507" d="M70 719H478Q484 689 484 658Q484 625 478 595H216V426H424Q430 394 430 364Q430 332 424 301H216V0Q178 -6 144 -6Q107 -6 70 0V719Z" />
<glyph unicode="G" glyph-name="G" horiz-adv-x="668" d="M465 373Q502 379 537 379Q572 379 610 373V20Q558 1 502 -5T403 -12Q315 -12 249 15T139 92T73 210T51 358Q51 438 74 506T140 625T247 703T392 731Q440 731 481 725T568 700Q566 670 556 642T534 584Q499
596 472 601T408 606Q312 606 261 544T209 358Q209 235 260 175T410 114Q427 114 440 116T465 120V373Z" />
<glyph unicode="H" glyph-name="H" horiz-adv-x="675" d="M70 719Q107 725 143 725Q179 725 217 719V437H458V719Q495 725 531 725Q567 725 605 719V0Q567 -6 532 -6Q495 -6 458 0V311H217V0Q179 -6 144 -6Q107 -6 70 0V719Z" />
<glyph unicode="I" glyph-name="I" horiz-adv-x="287" d="M70 719Q107 725 143 725Q179 725 217 719V0Q179 -6 144 -6Q107 -6 70 0V719Z" />
<glyph unicode="J" glyph-name="J" horiz-adv-x="411" d="M200 595H81Q78 609 77 625T75 658Q75 690 81 719H346V191Q346 136 329 98T281 35T209 -1T118 -12Q101 -12 76 -9T27 0Q26 7 26 14T25 29Q25 75 42 121Q53 119 66 116T93 113Q110 113 129 115T163 127T189
156T200 212V595Z" />
<glyph unicode="K" glyph-name="K" horiz-adv-x="619" d="M237 362L432 719Q455 723 474 724T510 725Q527 725 548 723T592 719L395 372L609 0Q586 -2 565 -4T526 -6Q510 -6 491 -5T447 0L237 362ZM70 720Q89 723 107 724T144 725Q161 725 179 724T216 720V-1Q197
-4 179 -5T143 -6Q125 -6 107 -5T70 -1V720Z" />
<glyph unicode="L" glyph-name="L" horiz-adv-x="493" d="M70 719Q107 725 141 725Q176 725 214 719V126H463Q466 109 467 94T468 64Q468 48 467 33T463 0H70V719Z" />
<glyph unicode="M" glyph-name="M" horiz-adv-x="817" d="M90 719Q130 725 167 725Q206 725 244 719L409 307L579 719Q610 725 648 725Q686 725 721 719L755 0Q717 -6 683 -6Q649 -6 616 0L598 488L452 150Q438 148 423 147T393 145Q380 145 367 146T340 150L204
495L190 0Q158 -6 128 -6Q96 -6 62 0L90 719Z" />
<glyph unicode="N" glyph-name="N" horiz-adv-x="668" d="M70 719Q101 725 129 725Q159 725 191 719L469 261V719Q505 725 538 725Q569 725 598 719V0Q566 -6 540 -6Q512 -6 479 0L199 457V0Q167 -6 134 -6Q101 -6 70 0V719Z" />
<glyph unicode="O" glyph-name="O" horiz-adv-x="726" d="M363 -12Q282 -12 223 16T126 93T70 210T51 358Q51 438 69 506T126 625T223 703T363 731Q444 731 503 703T600 625T656 507T675 358Q675 278 657 211T600 94T503 16T363 -12ZM363 110Q518 110 518 358Q518
482 481 544T364 606Q207 606 207 358Q207 110 363 110Z" />
<glyph unicode="P" glyph-name="P" horiz-adv-x="583" d="M70 722Q116 726 163 728T258 731Q308 731 359 721T452 684T520 607T546 480Q546 402 520 354T453 277T362 239T262 229Q249 229 238 229T216 231V0Q197 -3 179 -4T144 -5Q128 -5 109 -4T70 0V722ZM216
352Q228 350 238 350T264 350Q289 350 313 356T355 378T385 417T396 478Q396 515 385 540T356 581T313 603T264 610Q253 610 244 610T216 607V352Z" />
<glyph unicode="Q" glyph-name="Q" horiz-adv-x="726" d="M693 -56Q691 -85 686 -115T670 -173L422 -133Q425 -112 427 -98T432 -71T439 -46T448 -18L693 -56ZM363 -12Q282 -12 223 16T126 93T70 210T51 358Q51 438 69 506T126 625T223 703T363 731Q444 731 503
703T600 625T656 507T675 358Q675 278 657 211T600 94T503 16T363 -12ZM363 110Q518 110 518 358Q518 482 481 544T364 606Q207 606 207 358Q207 110 363 110Z" />
<glyph unicode="R" glyph-name="R" horiz-adv-x="611" d="M77 719Q121 724 159 727T245 731Q300 731 353 721T450 686T519 617T546 506Q546 466 536 436T511 382T477 343T443 316L426 305L601 1Q581 -1 559 -3T514 -5Q476 -5 439 1L251 335L275 347Q289 354 309
365T347 392T379 432T392 488Q392 551 356 580T263 610Q241 610 223 607V0Q205 -2 187 -3T152 -5Q135 -5 116 -4T77 0V719Z" />
<glyph unicode="S" glyph-name="S" horiz-adv-x="550" d="M201 333Q167 346 140 361T94 398T65 450T54 522Q54 573 71 612T121 677T198 717T299 731Q350 731 394 722T488 696Q482 638 456 582Q441 588 426 594T393 604T353 610T303 613Q286 613 269 610T237 599T214
576T205 535Q205 515 212 502T231 479T258 463T288 450L348 427Q386 412 417 396T469 357T503 300T515 217Q515 166 497 124T443 52T357 5T238 -12Q205 -12 179 -10T130 -4T83 8T35 25Q38 54 46 85T65 149Q107 132 144 124T223 115Q286 115 322 138T358 210Q358
234 350 250T328 277T297 295T262 310L201 333Z" />
<glyph unicode="T" glyph-name="T" horiz-adv-x="567" d="M210 595H31Q25 625 25 658Q25 689 31 719H536Q542 689 542 658Q542 625 536 595H357V0Q339 -2 321 -3T286 -5Q269 -5 250 -4T210 0V595Z" />
<glyph unicode="U" glyph-name="U" horiz-adv-x="671" d="M66 719Q85 722 103 723T140 724Q157 724 175 723T212 719V346Q212 285 216 242T234 170T272 128T336 114Q375 114 399 127T436 169T454 241T459 346V719Q479 722 497 723T532 724Q550 724 568 723T606
719V315Q606 242 594 182T551 78T468 12T336 -12Q256 -12 204 11T121 78T78 181T66 315V719Z" />
<glyph unicode="V" glyph-name="V" horiz-adv-x="645" d="M10 719Q27 721 49 723T88 725Q126 725 168 719L325 152L484 719Q504 722 522 723T560 724Q578 724 596 723T635 719L403 0Q382 -3 363 -4T321 -6Q301 -6 282 -5T240 0L10 719Z" />
<glyph unicode="W" glyph-name="W" horiz-adv-x="921" d="M16 719Q52 725 98 725Q116 725 134 724T171 719L274 178L398 719Q418 722 435 723T470 725Q500 725 535 719L664 164L767 719Q798 725 831 725Q851 725 870 723T907 719L734 0Q698 -6 659 -6Q621 -6 576
0L461 479L337 0Q313 -2 295 -4T254 -6Q223 -6 187 0L16 719Z" />
<glyph unicode="X" glyph-name="X" horiz-adv-x="633" d="M321 373L433 717Q472 723 508 723Q527 723 546 722T586 718L459 376L615 0Q592 -3 575 -4T539 -6Q522 -6 505 -5T462 1L321 373ZM176 376L47 718Q67 721 86 722T125 723Q161 723 200 717L314 373L171
1Q146 -3 129 -4T94 -6Q76 -6 59 -5T18 0L176 376Z" />
<glyph unicode="Y" glyph-name="Y" horiz-adv-x="615" d="M234 257L10 719Q52 725 94 725Q132 725 170 719L312 393L452 719Q489 725 528 725Q564 725 605 719L381 257V-1Q361 -4 343 -5T307 -6Q290 -6 272 -5T234 -1V257Z" />
<glyph unicode="Z" glyph-name="Z" horiz-adv-x="580" d="M38 10L340 595H64Q58 625 58 656Q58 689 64 719H546L554 707L255 124H539Q545 94 545 63Q545 30 539 0H45L38 10Z" />
<glyph unicode="[" glyph-name="bracketleft" horiz-adv-x="344" d="M50 776H288Q291 761 292 748T294 720Q294 692 288 662H188V-54H288Q294 -84 294 -112Q294 -127 293 -140T288 -168H50V776Z" />
<glyph unicode="\" glyph-name="backslash" horiz-adv-x="414" d="M15 719Q51 725 85 725Q119 725 157 719L400 0Q364 -6 330 -6Q295 -6 259 0L15 719Z" />
<glyph unicode="]" glyph-name="bracketright" horiz-adv-x="344" d="M156 -54V662H56Q50 692 50 720Q50 735 51 748T56 776H294V-168H56Q53 -153 52 -140T50 -112Q50 -84 56 -54H156Z" />
<glyph unicode="^" glyph-name="asciicircum" horiz-adv-x="549" d="M208 719Q241 725 275 725Q307 725 343 719L499 363Q479 358 462 357T432 356Q415 356 399 357T369 362L271 590L180 362Q165 359 149 358T117 356Q104 356 88 357T50 363L208 719Z" />
<glyph unicode="_" glyph-name="underscore" horiz-adv-x="504" d="M497 -2Q500 -16 501 -28T502 -53Q502 -64 501 -75T497 -100H7Q4 -86 3 -74T2 -49Q2 -38 3 -27T7 -2H497Z" />
<glyph unicode="`" glyph-name="grave" horiz-adv-x="500" d="M108 719Q128 722 146 723T191 725Q240 725 281 719L393 596Q360 590 328 590Q308 590 290 592T259 596L108 719Z" />
<glyph unicode="a" glyph-name="a" horiz-adv-x="522" d="M328 237Q316 239 302 240T277 242Q228 242 200 225T171 168Q171 142 182 128T208 108T241 100T272 98Q287 98 302 100T328 105V237ZM328 340Q328 364 320 379T298 402T264 414T218 417Q164 417 103 396Q89
422 82 445T75 500Q119 515 163 522T245 529Q349 529 407 479T466 319V19Q431 8 381 -2T268 -12Q217 -12 175 -3T102 27T55 81T38 162Q38 210 58 242T111 294T184 322T264 331Q293 331 328 328V340Z" />
<glyph unicode="b" glyph-name="b" horiz-adv-x="590" d="M68 731Q104 737 138 737Q173 737 209 731V467Q224 494 259 511T339 529Q384 529 422 513T489 465T533 383T549 267Q549 202 529 151T471 63T378 8T254 -12Q232 -12 208 -10T158 -5T110 4T68 17V731ZM209
112Q221 108 234 107T262 106Q327 106 364 144T401 263Q401 335 378 372T300 410Q260 410 235 384T209 300V112Z" />
<glyph unicode="c" glyph-name="c" horiz-adv-x="475" d="M417 122Q429 102 437 76T445 13Q405 -3 370 -7T297 -12Q232 -12 184 8T105 65T57 150T41 258Q41 315 56 364T103 450T182 508T291 529Q313 529 331 528T367 524T401 516T439 503Q439 480 433 452T414
397Q384 407 362 410T310 414Q248 414 217 374T185 258Q185 177 219 140T311 103Q326 103 338 103T363 106T387 112T417 122Z" />
<glyph unicode="d" glyph-name="d" horiz-adv-x="588" d="M380 731Q398 734 415 735T450 736Q467 736 485 735T521 731V17Q474 3 426 -4T308 -12Q255 -12 207 2T121 48T63 130T41 252Q41 309 59 359T112 447T196 505T305 527Q323 527 342 526T380 519V731ZM380
410Q360 415 348 416T316 418Q283 418 259 405T218 369T195 316T187 252Q187 211 197 183T224 137T266 113T318 105Q335 105 349 106T380 113V410Z" />
<glyph unicode="e" glyph-name="e" horiz-adv-x="562" d="M183 215Q187 155 225 128T325 101Q359 101 394 107T462 126Q473 106 481 78T490 18Q412 -12 314 -12Q242 -12 191 8T107 63T59 148T43 255Q43 312 59 362T106 449T184 507T293 529Q347 529 389 510T460
458T505 380T520 282Q520 263 519 245T515 215H183ZM386 314Q384 362 360 391T291 421Q241 421 215 393T184 314H386Z" />
<glyph unicode="f" glyph-name="f" horiz-adv-x="396" d="M104 409H22Q19 425 18 438T17 465Q17 478 18 490T22 517H104V542Q104 590 118 627T160 690T224 729T307 743Q337 743 357 741T402 731Q400 698 396 672T381 619Q370 621 358 623T326 626Q291 626 269
610T245 539V517H365Q368 501 369 488T370 461Q370 448 369 436T365 409H245V0Q209 -6 175 -6Q140 -6 104 0V409Z" />
<glyph unicode="g" glyph-name="g" horiz-adv-x="566" d="M360 86Q451 84 494 46T537 -64Q537 -106 515 -140T455 -199T365 -236T253 -249Q193 -249 151 -240T83 -213T45 -171T33 -116Q33 -71 54 -42T112 9Q89 23 76 43T62 96Q62 134 78 158T125 204Q90 229 71
265T52 345Q52 384 67 417T110 475T180 514T272 528Q322 528 364 513T434 473Q453 498 481 510T557 523Q559 510 560 498T562 471Q562 455 561 439T557 406H476Q481 396 485 382T489 345Q489 306 475 273T432 215T364 177T272 163Q229 163 195 172Q178 161 174
149T170 125Q170 109 180 99T223 88L360 86ZM232 -18Q210 -17 196 -23T173 -38T161 -59T157 -82Q157 -120 185 -133T262 -147Q325 -147 363 -127T402 -73Q402 -63 400 -54T390 -38T371 -25T337 -20L232 -18ZM273 255Q315 255 333 279T352 345Q352 387 334 411T273
436Q230 436 211 412T192 345Q192 303 211 279T273 255Z" />
<glyph unicode="h" glyph-name="h" horiz-adv-x="586" d="M68 731Q85 734 103 735T138 736Q155 736 173 735T209 731V456Q216 465 227 477T256 501T297 521T352 529Q438 529 482 481T527 330V-1Q509 -4 491 -5T456 -6Q439 -6 421 -5T385 -1V292Q385 346 368 375T310
404Q293 404 275 399T243 380T219 339T209 271V-1Q191 -4 173 -5T138 -6Q121 -6 104 -5T68 -1V731Z" />
<glyph unicode="i" glyph-name="i" horiz-adv-x="307" d="M98 409H31Q28 422 27 436T25 464Q25 491 31 517H237V0Q201 -6 167 -6Q134 -6 98 0V409ZM77 604Q71 638 71 671Q71 703 77 738Q94 741 113 742T149 744Q166 744 186 743T223 738Q226 721 227 705T228 671Q228
655 227 638T223 604Q206 601 187 600T150 599Q134 599 114 600T77 604Z" />
<glyph unicode="j" glyph-name="j" horiz-adv-x="307" d="M99 409H31Q28 422 27 436T25 464Q25 491 31 517H237V-11Q237 -107 189 -149T50 -192Q25 -192 -1 -189T-49 -181Q-49 -152 -45 -127T-31 -78Q-21 -80 -7 -82T21 -84Q37 -84 51 -80T76 -66T93 -36T99 14V409ZM77
607Q73 628 72 642T71 671Q71 687 72 701T77 735Q96 740 115 742T150 744Q164 744 184 742T222 735Q226 715 227 701T228 671Q228 656 227 642T222 607Q204 602 184 601T150 599Q135 599 116 600T77 607Z" />
<glyph unicode="k" glyph-name="k" horiz-adv-x="535" d="M61 731Q95 737 131 737Q167 737 202 731V0Q167 -6 131 -6Q95 -6 61 0V731ZM222 271L350 517Q389 523 429 523Q467 523 503 517L371 278L525 0Q484 -6 446 -6Q411 -6 372 0L222 271Z" />
<glyph unicode="l" glyph-name="l" horiz-adv-x="324" d="M66 731Q102 737 137 737Q171 737 207 731V206Q207 175 210 156T221 127T241 112T271 108Q279 108 288 109T307 112Q318 71 318 32Q318 24 318 18T316 3Q300 -2 278 -4T236 -6Q159 -6 113 36T66 175V731Z" />
<glyph unicode="m" glyph-name="m" horiz-adv-x="879" d="M70 517Q84 520 98 521T129 523Q146 523 159 522T186 517Q189 512 191 503T196 483T199 462T202 445Q210 460 223 475T254 502T294 521T345 529Q466 529 500 437Q520 474 556 501T649 529Q737 529 778
481T820 329V0Q784 -6 749 -6Q714 -6 678 0V292Q678 346 665 375T610 404Q593 404 577 399T547 381T525 343T516 279V0Q480 -6 445 -6Q410 -6 374 0V292Q374 346 361 375T306 404Q289 404 272 399T242 380T220 339T212 271V0Q176 -6 141 -6Q106 -6 70 0V517Z" />
<glyph unicode="n" glyph-name="n" horiz-adv-x="587" d="M70 517Q84 520 98 521T129 523Q146 523 159 522T186 517Q189 512 191 503T196 483T199 462T202 445Q212 460 226 475T258 502T300 521T351 529Q439 529 483 481T528 330V0Q492 -6 457 -6Q422 -6 386 0V292Q386
346 370 375T312 404Q295 404 277 399T245 380T221 339T212 271V0Q176 -6 141 -6Q106 -6 70 0V517Z" />
<glyph unicode="o" glyph-name="o" horiz-adv-x="580" d="M289 -12Q226 -12 180 8T103 65T57 151T41 257Q41 314 56 364T102 450T179 508T289 529Q352 529 399 508T477 451T523 364T538 257Q538 200 523 151T477 66T399 9T289 -12ZM289 96Q345 96 369 137T394
257Q394 335 370 376T289 418Q234 418 210 377T185 257Q185 179 209 138T289 96Z" />
<glyph unicode="p" glyph-name="p" horiz-adv-x="591" d="M67 518Q81 521 94 522T125 523Q153 523 182 517Q185 512 187 503T192 482T196 461T199 443Q208 459 221 474T252 502T294 521T345 529Q388 529 425 513T491 465T534 383T550 267Q550 202 531 151T476
63T388 8T270 -12Q253 -12 237 -11T209 -7V-237Q190 -240 173 -241T138 -242Q121 -242 104 -241T67 -237V518ZM209 110Q236 102 271 102Q333 102 366 142T399 263Q399 294 394 320T377 366T347 396T301 407Q276 407 259 398T230 372T214 333T209 286V110Z" />
<glyph unicode="q" glyph-name="q" horiz-adv-x="587" d="M378 -4Q361 -6 343 -8T302 -10Q251 -10 204 3T121 47T63 127T41 248Q41 305 60 356T117 446T208 506T331 529Q387 529 431 523T520 506V-237Q502 -240 485 -241T450 -242Q433 -242 415 -241T379 -237L378
-4ZM378 407Q355 411 347 412T326 413Q258 413 224 367T189 248Q189 207 198 180T224 136T264 112T316 105Q333 105 347 106T378 113V407Z" />
<glyph unicode="r" glyph-name="r" horiz-adv-x="402" d="M70 517Q85 520 98 521T128 523Q143 523 157 521T186 516Q189 511 191 502T196 482T199 461T202 443Q224 474 256 498T336 523Q346 523 359 522T378 519Q380 509 381 496T382 469Q382 452 381 432T375
394Q364 396 351 396T334 396Q317 396 296 393T256 374T225 329T212 245V-1Q194 -4 176 -5T141 -6Q124 -6 107 -5T70 -1V517Z" />
<glyph unicode="s" glyph-name="s" horiz-adv-x="460" d="M170 225Q114 241 83 272T51 367Q51 443 105 486T254 529Q293 529 331 522T408 501Q406 475 398 447T379 398Q355 408 326 415T265 423Q231 423 212 413T193 379Q193 357 206 348T245 331L302 314Q330
306 352 295T391 266T416 224T425 163Q425 126 410 94T365 39T293 2T198 -12Q174 -12 154 -11T116 -6T79 3T40 16Q42 43 49 70T69 124Q102 111 131 105T193 98Q207 98 223 100T254 109T277 126T287 154Q287 178 273 188T232 207L170 225Z" />
<glyph unicode="t" glyph-name="t" horiz-adv-x="383" d="M84 409H19L14 429L201 668H224V517H345Q348 502 349 490T350 465Q350 451 349 438T345 409H224V206Q224 175 229 156T243 126T267 111T300 107Q315 107 329 109T355 114Q362 95 365 75T368 38Q368 27
368 20T366 5Q320 -6 271 -6Q180 -6 132 36T84 175V409Z" />
<glyph unicode="u" glyph-name="u" horiz-adv-x="572" d="M61 517Q97 523 132 523Q167 523 203 517V243Q203 202 209 176T229 134T263 112T310 105Q347 105 372 112V517Q408 523 442 523Q477 523 513 517V20Q481 9 429 -1T319 -12Q268 -12 221 -4T139 30T82 106T61
239V517Z" />
<glyph unicode="v" glyph-name="v" horiz-adv-x="544" d="M5 516Q29 521 49 522T85 523Q105 523 125 522T162 517L275 132L386 517Q403 520 422 521T460 523Q475 523 494 522T539 516L343 0Q324 -3 303 -4T268 -5Q253 -5 234 -4T198 1L5 516Z" />
<glyph unicode="w" glyph-name="w" horiz-adv-x="806" d="M7 516Q30 521 50 522T85 523Q105 523 124 522T160 517L243 135L339 517Q370 523 407 523Q433 522 450 521T480 517L574 142L656 517Q673 520 688 521T722 523Q736 523 755 522T799 516L638 0Q620 -3 600
-4T565 -5Q550 -5 532 -4T496 1L402 343L305 0Q286 -3 266 -4T231 -5Q217 -5 199 -4T163 1L7 516Z" />
<glyph unicode="x" glyph-name="x" horiz-adv-x="534" d="M133 267L34 517Q67 523 107 523Q145 523 184 517L263 264L160 0Q124 -6 89 -6Q54 -6 15 0L133 267ZM270 264L350 517Q387 523 427 523Q464 523 500 517L400 267L519 0Q480 -6 445 -6Q410 -6 374 0L270 264Z" />
<glyph unicode="y" glyph-name="y" horiz-adv-x="542" d="M10 517Q33 522 50 522T83 523Q103 523 124 522T162 517L270 66L392 517Q425 523 460 523Q475 523 492 523T534 517L341 -122Q329 -160 313 -185T275 -224T228 -243T172 -249Q144 -249 122 -246T77 -236Q76
-231 76 -228T76 -220Q76 -196 81 -175T95 -133Q104 -136 119 -138T149 -141Q161 -141 173 -140T196 -131T218 -107T236 -62L253 0Q242 -1 229 -1T201 -2Q190 -2 180 -2T162 0L10 517Z" />
<glyph unicode="z" glyph-name="z" horiz-adv-x="493" d="M27 12L260 408H62Q59 423 58 437T57 465Q57 478 58 490T62 517H469L474 505L237 109H457Q460 94 461 80T462 52Q462 39 461 27T457 0H35L27 12Z" />
<glyph unicode="{" glyph-name="braceleft" horiz-adv-x="437" d="M144 142Q143 174 139 198T123 240T95 272T50 299V325Q77 337 94 351T123 384T138 426T144 482L147 573Q148 625 157 665T189 732T250 774T348 788Q356 788 364 788T381 787Q387 758 387 732Q387
705 381 677H364Q335 677 319 670T294 647T284 607T281 548Q281 488 277 448T262 381T236 338T197 312Q220 301 236 286T262 244T276 177T281 75Q281 41 283 17T294 -23T318 -46T364 -54H381Q387 -83 387 -109Q387 -136 381 -164Q372 -165 364 -165T348 -165Q289
-165 251 -151T190 -110T158 -42T147 50L144 142Z" />
<glyph unicode="|" glyph-name="bar" horiz-adv-x="341" d="M102 776Q136 782 170 782Q204 782 239 776V-168Q204 -174 171 -174Q136 -174 102 -168V776Z" />
<glyph unicode="}" glyph-name="braceright" horiz-adv-x="437" d="M73 -54Q101 -54 118 -47T143 -24T153 16T156 75Q156 136 160 176T175 243T201 285T240 312Q217 322 201 338T175 380T161 447T156 548Q156 582 154 606T143 646T118 669T73 677H56Q50 705 50
732Q50 758 56 787Q65 788 73 788T89 788Q148 788 186 774T247 733T279 665T290 573L293 482Q294 450 298 426T314 384T342 352T387 325V299Q360 287 343 273T314 240T299 198T293 142L290 50Q288 -2 279 -42T248 -109T187 -151T89 -165Q81 -165 73 -165T56 -164Q50
-136 50 -109Q50 -83 56 -54H73Z" />
<glyph unicode="~" glyph-name="asciitilde" horiz-adv-x="476" d="M12 423Q32 447 67 464T149 482Q172 482 193 476T236 462T280 448T326 442Q348 442 366 448T411 478Q431 458 444 435T465 387Q445 363 410 347T327 330Q304 330 282 336T237 349T194 363T150
370Q126 370 109 364T65 335Q47 355 33 377T12 423Z" />
</font>
</defs>
</svg>
